<?xml version="1.0" standalone="no"?>
<!DOCTYPE svg PUBLIC "-//W3C//DTD SVG 20010904//EN"
 "http://www.w3.org/TR/2001/REC-SVG-20010904/DTD/svg10.dtd">
<svg version="1.0" xmlns="http://www.w3.org/2000/svg"
 width="700.000000pt" height="700.000000pt" viewBox="0 0 700.000000 700.000000"
 preserveAspectRatio="xMidYMid meet">
<metadata>
Created by potrace 1.14, written by Peter Selinger 2001-2017
</metadata>
<g transform="translate(0.000000,700.000000) scale(0.100000,-0.100000)"
fill="#000000" stroke="none">
<path d="M5210 6879 c-39 -8 -373 -59 -1395 -215 -126 -20 -270 -42 -320 -49
-49 -8 -106 -16 -125 -19 -19 -3 -183 -28 -365 -56 -181 -28 -348 -53 -370
-56 -22 -3 -65 -9 -95 -14 -30 -6 -73 -12 -95 -15 -22 -4 -51 -8 -65 -10 -14
-2 -56 -9 -95 -15 -38 -6 -81 -13 -95 -15 -14 -2 -72 -11 -130 -20 -58 -8
-116 -17 -130 -19 -14 -3 -61 -10 -105 -16 -44 -7 -87 -13 -95 -15 -8 -1 -33
-5 -55 -9 -176 -26 -545 -82 -705 -107 -107 -17 -206 -32 -220 -34 -14 -2 -43
-6 -65 -9 -22 -3 -62 -8 -90 -12 -264 -31 -477 -201 -567 -454 l-23 -65 0
-2095 c0 -1765 2 -2103 14 -2145 24 -85 80 -190 140 -262 l57 -68 1 -207 c1
-182 4 -212 21 -250 24 -54 51 -82 105 -110 40 -22 54 -23 307 -26 l266 -3 -7
-62 c-8 -82 -17 -107 -37 -108 -9 -1 -37 -2 -61 -3 -43 -2 -76 -26 -68 -51 4
-11 783 -17 805 -5 10 5 9 12 -6 30 -16 20 -30 25 -70 26 -28 1 -55 5 -60 8
-10 6 -17 35 -28 118 l-6 48 247 0 c154 0 263 4 293 12 38 9 47 9 51 -3 9 -27
75 -79 120 -93 39 -13 109 -27 331 -70 14 -2 103 -20 199 -40 95 -20 197 -36
225 -36 90 1 171 54 206 135 9 22 34 128 56 236 l38 197 27 -38 c41 -57 70
-73 275 -154 104 -41 333 -131 509 -201 176 -70 372 -147 435 -172 63 -25 133
-48 155 -50 58 -7 121 13 165 53 35 32 52 68 176 382 75 191 140 350 143 355
4 4 7 -109 7 -250 l0 -258 814 0 815 0 2 155 c1 85 2 201 3 257 l0 102 48 32
c91 63 185 176 227 275 54 125 50 -40 50 2239 l0 2100 -23 65 c-45 127 -141
259 -242 332 -87 63 -214 111 -324 122 -57 6 -59 8 -63 44 -17 135 -113 282
-267 405 -142 115 -343 207 -551 253 -50 11 -267 13 -315 3z m309 -523 c67 -7
142 -34 157 -57 4 -7 9 -37 9 -66 2 -47 -1 -53 -19 -54 -158 -4 -3029 0 -3033
5 -4 3 27 6 68 7 41 1 88 2 104 4 17 1 91 6 165 9 74 4 146 9 160 11 14 2 90
6 170 10 80 4 161 8 180 10 19 2 89 6 155 9 66 4 145 9 175 11 30 2 100 7 155
10 115 6 239 13 340 20 39 3 120 7 180 10 61 4 135 8 165 10 30 2 111 7 180
10 69 3 148 10 175 15 81 15 115 19 215 26 52 4 96 7 97 8 4 3 144 -3 202 -8z
m-4729 -541 c30 -8 83 -29 119 -47 l63 -32 2525 -1 2524 0 75 36 c101 49 173
63 282 56 201 -12 366 -123 452 -302 59 -123 72 -221 45 -347 -31 -148 -130
-287 -254 -358 l-60 -35 -1 -155 0 -155 53 -28 c82 -43 171 -135 215 -222 131
-259 39 -573 -211 -721 l-52 -30 -3 -155 -2 -154 61 -35 c77 -44 167 -140 207
-219 60 -120 76 -273 41 -396 -34 -123 -142 -261 -253 -324 l-56 -32 0 -146 0
-145 39 -44 c45 -51 61 -104 61 -201 l0 -68 -17 34 c-9 18 -34 45 -57 60 l-40
26 -675 3 c-451 2 -688 0 -712 -7 -20 -6 -49 -23 -64 -38 -47 -48 -57 -79 -59
-185 0 -54 -4 -98 -7 -98 -3 0 -14 9 -23 19 -18 19 -47 32 -831 342 -514 203
-527 206 -615 162 -60 -30 -86 -66 -131 -178 -17 -44 -37 -93 -44 -110 -7 -16
-47 -119 -90 -227 -43 -109 -80 -197 -81 -195 -1 1 13 79 32 172 19 94 36 181
39 195 2 14 16 81 30 149 14 68 25 145 25 170 -1 85 -59 174 -136 206 -45 19
-732 155 -782 155 -51 0 -134 -43 -167 -85 -28 -38 -51 -94 -60 -152 -19 -116
-113 -553 -114 -527 -3 92 -50 167 -131 210 -33 18 -76 19 -780 22 -530 2
-756 0 -783 -8 -22 -6 -41 -9 -45 -6 -3 3 0 30 7 60 8 38 24 68 52 99 l39 45
0 145 0 144 -61 38 c-168 104 -256 253 -264 450 -3 104 10 169 57 265 37 78
150 195 221 229 l47 23 0 156 0 157 -55 30 c-128 69 -229 209 -265 368 -14 66
-5 196 19 270 42 125 144 250 248 305 l53 27 0 155 0 155 -61 35 c-34 19 -87
63 -119 96 -229 245 -186 632 92 822 119 82 301 114 438 77z m2013 -3795 c190
-38 356 -74 367 -80 29 -16 49 -50 51 -90 0 -19 -40 -237 -90 -485 -50 -247
-93 -459 -95 -470 -2 -11 -13 -67 -25 -125 -12 -58 -30 -150 -41 -205 -11 -55
-25 -112 -31 -127 -14 -35 -51 -58 -92 -60 -43 -1 -694 129 -734 147 -18 8
-39 28 -48 45 -14 27 -14 35 0 82 8 28 15 72 15 96 0 63 236 1240 257 1282 20
38 54 60 93 60 14 0 182 -31 373 -70z m1053 -301 c99 -39 240 -95 314 -124
432 -170 725 -287 751 -300 29 -15 59 -61 59 -89 0 -14 -280 -733 -316 -813
-19 -41 -60 -73 -94 -73 -25 0 -1196 457 -1271 495 -35 19 -58 61 -52 99 5 33
308 800 329 834 16 25 46 40 80 41 12 1 102 -31 200 -70z m-1943 -182 c16 -10
32 -30 38 -45 6 -16 9 -160 6 -392 -4 -414 -9 -454 -61 -475 -44 -18 -1434
-20 -1485 -2 -19 7 -43 24 -54 39 -19 25 -20 42 -18 419 2 429 4 448 59 467
16 6 322 9 757 8 686 -1 733 -2 758 -19z m4619 5 c10 -10 13 -111 15 -472 l2
-459 -696 2 -697 2 0 443 c-1 244 2 452 6 463 4 11 18 23 30 28 13 5 316 8
675 8 520 -2 655 -5 665 -15z"/>
<path d="M544 5710 c-103 -28 -179 -81 -248 -173 -84 -113 -100 -298 -38 -431
44 -93 118 -169 212 -214 73 -36 79 -37 185 -37 106 0 113 1 185 36 277 134
340 490 126 705 -112 111 -274 155 -422 114z m187 -191 c21 -7 53 -24 70 -39
l32 -27 -94 -37 c-52 -21 -98 -41 -102 -46 -5 -4 19 -74 52 -154 34 -81 61
-149 61 -151 0 -2 -16 -8 -35 -14 -33 -9 -96 -7 -134 3 -10 3 -31 -14 -59 -50
-38 -48 -45 -53 -64 -43 -33 18 -101 84 -120 117 l-18 30 54 46 c54 45 54 47
44 83 -47 172 134 335 313 282z m166 -254 c-6 -55 -39 -128 -71 -154 -13 -11
-19 -5 -42 46 -49 111 -53 98 34 132 42 16 79 30 81 30 2 1 1 -24 -2 -54z"/>
<path d="M523 5288 c-36 -12 -45 -38 -13 -38 19 0 20 -1 5 -24 -19 -28 -7 -41
26 -31 21 7 21 6 5 -16 -29 -42 -20 -47 47 -28 22 6 37 16 37 26 0 10 -6 14
-20 10 -18 -5 -19 -3 -5 23 17 33 11 42 -23 33 -25 -6 -25 -6 -9 18 29 41 17
48 -50 27z"/>
<path d="M6243 5714 c-167 -43 -294 -173 -327 -336 -42 -202 53 -392 243 -486
67 -33 82 -37 167 -39 100 -3 168 14 249 61 61 36 132 118 167 192 56 121 49
285 -18 400 -97 166 -301 254 -481 208z m216 -214 c40 -20 61 -43 88 -92 28
-51 25 -189 -5 -245 -76 -144 -303 -149 -384 -9 -20 35 -23 55 -23 136 0 107
17 147 80 196 59 45 172 51 244 14z"/>
<path d="M6307 5408 c-24 -19 -37 -62 -37 -124 0 -66 21 -111 55 -120 71 -18
110 36 103 144 -4 56 -8 68 -32 88 -30 26 -63 31 -89 12z"/>
<path d="M3188 5018 c-25 -25 -22 -45 15 -106 214 -349 312 -501 330 -509 12
-6 31 -7 42 -3 21 8 365 556 365 581 0 9 -6 24 -14 34 -13 19 -31 20 -367 20
-325 0 -355 -1 -371 -17z"/>
<path d="M2010 5017 c-19 -6 -55 -32 -81 -57 -53 -53 -75 -115 -65 -188 6 -46
20 -72 210 -379 28 -46 69 -112 91 -148 22 -35 81 -131 131 -212 50 -82 169
-274 263 -428 95 -154 183 -296 196 -315 12 -19 124 -199 247 -400 124 -201
247 -400 274 -444 53 -86 97 -122 171 -141 88 -22 195 18 245 92 14 21 78 121
140 223 221 356 770 1245 781 1265 7 11 29 46 50 78 20 32 37 61 37 64 0 2 15
28 34 56 101 155 382 617 392 647 30 81 10 165 -56 230 -27 27 -61 50 -86 58
-60 18 -710 17 -675 -1 38 -19 64 -62 63 -102 -1 -37 -4 -42 -247 -435 -57
-91 -143 -230 -192 -310 -169 -273 -283 -455 -295 -471 -7 -9 -24 -20 -38 -24
-24 -8 -32 -9 -79 -6 -11 1 -31 13 -45 29 -23 24 -246 377 -246 388 0 3 -5 10
-10 17 -28 32 -474 766 -481 790 -12 42 15 101 54 121 30 14 3 15 -358 15
-256 -1 -402 -5 -425 -12z"/>
<path d="M551 4430 c-190 -40 -336 -202 -357 -397 -28 -267 212 -514 476 -489
239 22 409 199 419 436 8 188 -120 370 -304 434 -60 21 -173 28 -234 16z m204
-120 c3 -5 -32 -132 -79 -282 -46 -150 -90 -293 -97 -317 -13 -44 -33 -61 -50
-44 -9 9 16 92 147 511 43 134 60 163 79 132z m-265 -147 c0 -10 -35 -53 -77
-95 l-78 -78 78 -78 c72 -73 95 -112 64 -112 -16 0 -197 176 -197 191 0 14
182 189 197 189 7 0 13 -8 13 -17z m420 -72 c49 -48 90 -94 90 -102 0 -18
-180 -191 -194 -186 -28 9 -11 39 59 105 41 40 75 77 75 82 0 5 -34 42 -77 83
-54 53 -74 79 -70 91 4 9 11 16 16 16 6 0 51 -40 101 -89z"/>
<path d="M6285 4409 c-158 -19 -300 -135 -354 -289 -82 -234 45 -485 284 -565
48 -16 163 -22 214 -11 139 30 244 114 309 246 36 72 37 77 37 185 0 108 -1
113 -37 186 -90 179 -257 270 -453 248z m191 -183 c97 -64 86 -318 -17 -372
-35 -18 -97 -18 -129 1 -14 8 -27 14 -30 15 -3 0 -4 -40 -3 -90 l2 -90 -62 0
-62 0 0 275 c0 151 2 276 5 276 3 1 29 3 58 4 46 1 52 -1 52 -18 0 -19 1 -19
18 -4 41 38 112 39 168 3z"/>
<path d="M6316 4147 c-13 -10 -18 -30 -19 -97 -2 -72 0 -86 17 -102 28 -26 61
-22 85 8 35 44 26 170 -13 196 -17 12 -50 9 -70 -5z"/>
<path d="M543 3085 c-125 -35 -222 -116 -279 -230 -64 -129 -58 -291 14 -414
90 -153 271 -239 445 -211 255 41 420 289 356 537 -33 133 -111 228 -236 290
-62 31 -83 36 -160 39 -58 3 -106 -1 -140 -11z m187 -117 c56 -30 80 -74 80
-151 0 -51 3 -59 25 -69 38 -17 53 -62 54 -163 1 -116 -7 -145 -49 -172 -30
-21 -44 -23 -172 -23 -213 0 -228 12 -228 185 0 119 8 147 47 170 25 15 29 23
28 61 -3 81 31 144 90 170 43 19 75 17 125 -8z"/>
<path d="M635 2910 c-34 -13 -44 -33 -47 -92 l-3 -56 77 0 78 1 0 53 c0 41 -5
59 -20 74 -11 11 -24 20 -29 20 -5 0 -15 2 -23 4 -7 3 -22 1 -33 -4z"/>
<path d="M6236 3089 c-21 -5 -64 -23 -96 -40 -262 -139 -314 -486 -104 -696
232 -233 627 -134 726 181 30 93 22 220 -18 306 -37 77 -109 160 -171 196 -96
57 -230 78 -337 53z m64 -245 c31 -64 44 -83 54 -75 6 5 27 44 46 85 l34 76
74 0 74 0 -33 -57 c-17 -32 -43 -78 -57 -103 -13 -25 -33 -58 -42 -75 l-18
-30 74 -130 c40 -71 74 -133 74 -137 0 -5 -31 -8 -70 -8 l-70 0 -46 92 -47 93
-46 -93 -46 -92 -73 0 c-85 0 -86 -20 14 156 35 61 64 114 64 118 0 4 -17 38
-39 74 -57 99 -101 180 -101 186 0 4 31 6 70 6 l69 0 41 -86z"/>
<path d="M2495 781 c-54 -17 -85 -59 -85 -116 0 -100 124 -149 195 -75 31 33
42 93 23 129 -25 46 -89 76 -133 62z"/>
<path d="M4558 944 c-35 -19 -48 -43 -48 -91 1 -121 177 -143 209 -26 25 90
-76 164 -161 117z"/>
<path d="M4925 401 c9 -50 50 -106 93 -128 35 -17 83 -18 838 -18 l800 0 42
28 c43 28 82 89 82 129 l0 24 -931 0 -931 0 7 -35z"/>
</g>
</svg>
